# xmcd
#
# Track frame offsets:
#	150
#	11240
#	28787
#	42885
#	55257
#	68205
#	80140
#	93490
#	108610
#	119682
#	137262
#	151340
#	163705
#	176595
#	188577
#	201947
#
# Disc length: 2894
#
# Revision: 1
# Processed by: cddbd v1.5.1PL2 Copyright (c) Steve Scherf et al.
# Submitted via: kTunes Lite (development) 1.0patch41.18
#
DISCID=de0b4c10
DTITLE=Johnny Cash - SC-2138
DYEAR=1998
DGENRE=Karaoke
TTITLE0=Johnny Cash - Ballad of a Teenage Queen
TTITLE1=Johnny Cash - A Boy Names Sue
TTITLE2=Johnny Cash - Man In Black
TTITLE3=Johnny Cash - Get Rhythm
TTITLE4=Johnny Cash - I Walk The Line
TTITLE5=Johnny Cash - Daddy Sang Bass
TTITLE6=Johnny Cash - Folsom Prison Blues
TTITLE7=Johnny Cash - Don't Take Your Guns To Town
TTITLE8=Johnny Cash - Ballad of a Teenage Queen (vocals)
TTITLE9=Johnny Cash - A Boy Names Sue (vocals)
TTITLE10=Johnny Cash - Man In Black (vocals)
TTITLE11=Johnny Cash - Get Rhythm (vocals)
TTITLE12=Johnny Cash - I Walk The Line (vocals)
TTITLE13=Johnny Cash - Daddy Sang Bass (vocals)
TTITLE14=Johnny Cash - Folsom Prison Blues (vocals)
TTITLE15=Johnny Cash - Don't Take Your Guns To Town (vocals)
EXTD=
EXTT0=
EXTT1=
EXTT2=
EXTT3=
EXTT4=
EXTT5=
EXTT6=
EXTT7=
EXTT8=
EXTT9=
EXTT10=
EXTT11=
EXTT12=
EXTT13=
EXTT14=
EXTT15=
PLAYORDER=
